# xmcd
#
# Track frame offsets:
#	150
#	18785
#	35555
#	54752
#	68265
#	84027
#	101087
#	118090
#	132720
#	146842
#	164272
#	181640
#
# Disc length: 2658 seconds
# Revision: 2
# Processed by: cddbd v1.5.2PL0 Copyright (c) Steve Scherf et al.
# Submitted via: dBpowerAMP V12.0
#
DISCID=920a600c
DTITLE=Stephanie Beaumont - Love And Dreams
DYEAR=1996
DGENRE=
TTITLE0=Love And Dreams
TTITLE1=Nothing To Lose
TTITLE2=When The Night Falls
TTITLE3=Stop You're Breaking My Heart
TTITLE4=Lay My Eyes On You
TTITLE5=Tearing At The Heart Of Me
TTITLE6=Until You Begin
TTITLE7=Asking For The Moon
TTITLE8=I Don't Want To Know
TTITLE9=Habits Of The Heart
TTITLE10=Just Like The Moon
TTITLE11=Lover's Lullaby
EXTD=
EXTT0=
EXTT1=
EXTT2=
EXTT3=
EXTT4=
EXTT5=
EXTT6=
EXTT7=
EXTT8=
EXTT9=
EXTT10=
EXTT11=
PLAYORDER=
